Coordinates
version=1
nRows=34
nColumns=38
inDegrees=no

Units are S.I. units (second, meters, Newtons, ...)
If the header above contains a line with 'inDegrees', this indicates whether rotational values are in degrees (yes) or radians (no).

endheader
time	pelvis_tilt	pelvis_list	pelvis_rotation	pelvis_tx	pelvis_ty	pelvis_tz	hip_flexion_r	hip_adduction_r	hip_rotation_r	knee_angle_r	ankle_angle_r	subtalar_angle_r	mtp_angle_r	hip_flexion_l	hip_adduction_l	hip_rotation_l	knee_angle_l	ankle_angle_l	subtalar_angle_l	mtp_angle_l	lumbar_extension	lumbar_bending	lumbar_rotation	arm_flex_r	arm_add_r	arm_rot_r	elbow_flex_r	pro_sup_r	wrist_flex_r	wrist_dev_r	arm_flex_l	arm_add_l	arm_rot_l	elbow_flex_l	pro_sup_l	wrist_flex_l	wrist_dev_l
0.66	-0.479323	1.4916	-0.940019	0.400886	0.956365	1.02003	0.387814	0.0565935	0.184956	0.704653	-0.120565	0	0	-0.241678	-0.180388	-0.218644	0.748825	-0.127147	0	0	-0.354394	0.0991245	0.185723	0.109337	-0.550194	0.994255	0.660537	0.617885	0	0	0.150098	-0.235516	0.758279	0.415144	0.730459	0	0
0.67	-0.474637	1.48775	-0.945602	0.40009	0.94546	1.02206	0.378288	0.0588841	0.175517	0.711497	-0.126545	0	0	-0.218545	-0.19119	-0.212637	0.807697	-0.157319	0	0	-0.358365	0.100157	0.188218	0.112133	-0.548719	1.00038	0.660428	0.612196	0	0	0.152199	-0.235914	0.759171	0.411677	0.732882	0	0
0.68	-0.457354	1.48331	-0.963178	0.399456	0.934901	1.02447	0.363668	0.0598022	0.166187	0.710713	-0.132539	0	0	-0.194269	-0.199772	-0.203547	0.867018	-0.192074	0	0	-0.36443	0.100788	0.190077	0.116402	-0.547772	1.00822	0.6608	0.604449	0	0	0.155281	-0.236301	0.759247	0.408527	0.735685	0	0
0.69	-0.42579	1.4775	-0.994218	0.399042	0.924619	1.02722	0.343224	0.0595728	0.155385	0.702759	-0.138578	0	0	-0.170816	-0.206096	-0.192292	0.925016	-0.229275	0	0	-0.372875	0.101417	0.190888	0.122165	-0.548117	1.01859	0.662832	0.593625	0	0	0.158866	-0.237209	0.7588	0.406419	0.73931	0	0
0.7	-0.374679	1.46998	-1.04418	0.398898	0.914548	1.03029	0.317786	0.0574628	0.143033	0.691334	-0.142919	0	0	-0.150183	-0.210021	-0.180554	0.980026	-0.261229	0	0	-0.383725	0.101374	0.190933	0.128395	-0.55005	1.03003	0.667253	0.580809	0	0	0.162461	-0.239194	0.757889	0.406971	0.742654	0	0
0.71	-0.315092	1.46128	-1.10226	0.399014	0.904679	1.03347	0.290037	0.0537897	0.128898	0.679316	-0.146518	0	0	-0.131727	-0.211832	-0.16904	1.03154	-0.289677	0	0	-0.395656	0.100835	0.190435	0.135051	-0.553824	1.04335	0.674244	0.564438	0	0	0.165754	-0.242142	0.75719	0.409881	0.745288	0	0
0.72	-0.258154	1.45267	-1.158	0.39928	0.894951	1.03655	0.262914	0.0495703	0.114924	0.668837	-0.149506	0	0	-0.114237	-0.211782	-0.158674	1.07905	-0.309987	0	0	-0.406783	0.0995381	0.19066	0.140051	-0.557802	1.05391	0.681815	0.550351	0	0	0.169344	-0.245548	0.758499	0.413448	0.746292	0	0
0.73	-0.206156	1.44387	-1.20838	0.399708	0.885317	1.03959	0.235644	0.0451779	0.100505	0.658282	-0.152851	0	0	-0.097874	-0.210793	-0.149382	1.12241	-0.317081	0	0	-0.417405	0.0980284	0.191191	0.143463	-0.56166	1.06176	0.68965	0.537479	0	0	0.173318	-0.249463	0.761637	0.417731	0.746828	0	0
0.74	-0.159686	1.43468	-1.25278	0.400317	0.87578	1.04264	0.207672	0.040759	0.0859401	0.646581	-0.156575	0	0	-0.0826975	-0.209401	-0.141887	1.16204	-0.308948	0	0	-0.427938	0.0966194	0.191774	0.145797	-0.565382	1.06736	0.697495	0.52559	0	0	0.177523	-0.253641	0.765565	0.422523	0.747528	0	0
0.75	-0.118803	1.42548	-1.29148	0.401125	0.866297	1.0457	0.179311	0.0362783	0.0715408	0.633533	-0.160408	0	0	-0.0681459	-0.207518	-0.13675	1.19711	-0.295806	0	0	-0.438044	0.0953517	0.192468	0.147413	-0.568675	1.07161	0.704638	0.514725	0	0	0.18171	-0.257156	0.768798	0.426709	0.748123	0	0
0.76	-0.083218	1.41481	-1.32411	0.402149	0.856748	1.04899	0.14747	0.0323879	0.0571356	0.616387	-0.164673	0	0	-0.0559276	-0.205747	-0.133463	1.22566	-0.286751	0	0	-0.449159	0.0947857	0.192622	0.148686	-0.571253	1.07512	0.710893	0.504348	0	0	0.185808	-0.260448	0.771454	0.430789	0.749261	0	0
0.77	-0.052012	1.40425	-1.35307	0.403191	0.84727	1.05226	0.114286	0.0284666	0.0421204	0.594868	-0.170205	0	0	-0.0444367	-0.203563	-0.132254	1.2481	-0.280853	0	0	-0.460164	0.0939797	0.193157	0.150177	-0.573347	1.07877	0.716452	0.494217	0	0	0.189838	-0.263335	0.773122	0.434512	0.751767	0	0
0.78	-0.023186	1.39392	-1.38001	0.404239	0.837752	1.0555	0.0812985	0.0245535	0.028101	0.573332	-0.17559	0	0	-0.0337383	-0.201169	-0.132435	1.26468	-0.27466	0	0	-0.470856	0.0927178	0.193684	0.151772	-0.574353	1.08244	0.720622	0.483941	0	0	0.193649	-0.265815	0.77355	0.437501	0.756144	0	0
0.79	0.00264789	1.38451	-1.40444	0.405273	0.828212	1.05864	0.0509524	0.0207992	0.01603	0.556129	-0.179269	0	0	-0.0231086	-0.198716	-0.133918	1.2758	-0.267297	0	0	-0.480673	0.0909979	0.194276	0.153414	-0.574003	1.08571	0.722875	0.474685	0	0	0.197497	-0.267711	0.773178	0.439099	0.762276	0	0
0.8	0.0274128	1.37564	-1.42852	0.406213	0.818715	1.06164	0.0223312	0.0168757	0.00488215	0.541885	-0.181928	0	0	-0.0133415	-0.195884	-0.137066	1.28128	-0.258636	0	0	-0.490228	0.0885029	0.195109	0.155627	-0.572842	1.08988	0.724128	0.465452	0	0	0.20151	-0.269417	0.771843	0.440032	0.77021	0	0
0.81	0.0517241	1.36787	-1.4532	0.407037	0.809361	1.06451	-0.00598564	0.0120765	-0.00471025	0.523944	-0.186224	0	0	-0.00381716	-0.192097	-0.141544	1.28109	-0.24896	0	0	-0.49945	0.0849054	0.196254	0.158881	-0.57074	1.095	0.724007	0.456544	0	0	0.205832	-0.270801	0.768466	0.440079	0.77726	0	0
0.82	0.0760953	1.36064	-1.47813	0.407868	0.800089	1.06732	-0.0343988	0.0065821	-0.015521	0.503695	-0.192172	0	0	0.00483572	-0.187742	-0.147135	1.27502	-0.238552	0	0	-0.508715	0.0805856	0.197154	0.162976	-0.567597	1.10093	0.72229	0.447925	0	0	0.210706	-0.271706	0.76441	0.438797	0.783753	0	0
0.83	0.101034	1.3546	-1.50383	0.408595	0.790929	1.06987	-0.0587575	0.000840052	-0.0261534	0.489351	-0.196696	0	0	0.0137986	-0.182743	-0.153088	1.26426	-0.227967	0	0	-0.517148	0.075203	0.198111	0.167037	-0.563136	1.10613	0.718895	0.440491	0	0	0.216414	-0.273004	0.762224	0.437001	0.789823	0	0
0.84	0.124397	1.34978	-1.52836	0.409151	0.781927	1.0721	-0.0804308	-0.00457279	-0.0373645	0.476363	-0.201867	0	0	0.0233271	-0.177729	-0.158993	1.24955	-0.216687	0	0	-0.524803	0.0692097	0.199271	0.171609	-0.557908	1.11164	0.714622	0.432737	0	0	0.222724	-0.274794	0.760955	0.435052	0.796414	0	0
0.85	0.147873	1.34564	-1.55347	0.409786	0.772872	1.07411	-0.10168	-0.0103828	-0.0482222	0.46181	-0.207418	0	0	0.0320348	-0.171925	-0.165406	1.23046	-0.205212	0	0	-0.531753	0.0626653	0.200274	0.176184	-0.552286	1.11729	0.709803	0.42489	0	0	0.22907	-0.276443	0.75994	0.43262	0.8022	0	0
0.86	0.170584	1.34225	-1.57811	0.410516	0.763845	1.07584	-0.12206	-0.0162226	-0.0584569	0.446701	-0.212997	0	0	0.0402522	-0.16558	-0.172003	1.20737	-0.194329	0	0	-0.53799	0.0559399	0.201192	0.180808	-0.546707	1.12308	0.70497	0.417298	0	0	0.23523	-0.278166	0.759226	0.430076	0.8075	0	0
0.87	0.192495	1.33892	-1.60053	0.411409	0.755198	1.07732	-0.140877	-0.0216368	-0.0681626	0.434822	-0.217173	0	0	0.0485052	-0.158478	-0.175872	1.18088	-0.183711	0	0	-0.544526	0.0499633	0.200859	0.185816	-0.542107	1.12852	0.701863	0.409902	0	0	0.241987	-0.280287	0.759407	0.42812	0.812187	0	0
0.88	0.213544	1.33442	-1.61876	0.4126	0.747201	1.07868	-0.160636	-0.0263008	-0.0803692	0.423287	-0.221045	0	0	0.0564446	-0.15017	-0.173951	1.15136	-0.174614	0	0	-0.552962	0.0456061	0.197685	0.19176	-0.539273	1.13375	0.702072	0.4011	0	0	0.24972	-0.283583	0.760813	0.428461	0.81565	0	0
0.89	0.234133	1.33189	-1.63875	0.413672	0.738953	1.07967	-0.177057	-0.0312381	-0.088847	0.41397	-0.223155	0	0	0.06389	-0.141833	-0.173851	1.11703	-0.167783	0	0	-0.559259	0.0402718	0.196138	0.196427	-0.535813	1.13699	0.701313	0.393838	0	0	0.256705	-0.286418	0.76247	0.428169	0.818241	0	0
0.9	0.253569	1.33065	-1.66005	0.414604	0.730608	1.08037	-0.190662	-0.0363347	-0.0925408	0.406791	-0.224302	0	0	0.0701744	-0.133739	-0.175496	1.07812	-0.162538	0	0	-0.564246	0.0342275	0.196594	0.200622	-0.5326	1.13967	0.700344	0.386879	0	0	0.263161	-0.288527	0.76369	0.42731	0.820402	0	0
0.91	0.272006	1.33002	-1.68074	0.415609	0.722357	1.08084	-0.202711	-0.0411581	-0.0947153	0.4013	-0.224047	0	0	0.0755955	-0.125326	-0.175749	1.03555	-0.158204	0	0	-0.568651	0.028426	0.197396	0.204816	-0.529706	1.14228	0.699204	0.381471	0	0	0.269501	-0.290141	0.764679	0.426312	0.822151	0	0
0.92	0.291649	1.33017	-1.6991	0.417187	0.713782	1.0811	-0.215432	-0.0459123	-0.103228	0.394041	-0.224201	0	0	0.0808915	-0.115517	-0.170835	0.990134	-0.154	0	0	-0.57138	0.0238299	0.19539	0.207532	-0.525054	1.14347	0.695674	0.377594	0	0	0.275074	-0.29215	0.765812	0.425622	0.824236	0	0
0.93	0.309467	1.33038	-1.71679	0.418625	0.705427	1.08119	-0.22709	-0.0500364	-0.108151	0.388161	-0.223493	0	0	0.0850477	-0.106045	-0.165944	0.942248	-0.150944	0	0	-0.574531	0.0190655	0.194213	0.210783	-0.521177	1.14444	0.693104	0.374348	0	0	0.280668	-0.294632	0.767256	0.426229	0.826982	0	0
0.94	0.324271	1.33039	-1.73468	0.419584	0.697573	1.08112	-0.236535	-0.0536268	-0.104911	0.385517	-0.220894	0	0	0.0878209	-0.0979243	-0.163977	0.892172	-0.149704	0	0	-0.57915	0.013489	0.195449	0.215548	-0.519507	1.14575	0.69348	0.370842	0	0	0.286734	-0.297279	0.768398	0.428179	0.829636	0	0
0.95	0.337496	1.33102	-1.75171	0.420589	0.689802	1.08087	-0.244417	-0.0570464	-0.0994078	0.384198	-0.21763	0	0	0.0898343	-0.0903485	-0.16212	0.840386	-0.148732	0	0	-0.583402	0.00825648	0.197188	0.220177	-0.5187	1.14629	0.694722	0.367696	0	0	0.292639	-0.299219	0.768842	0.429634	0.831086	0	0
0.96	0.350357	1.33165	-1.76645	0.422128	0.681569	1.08047	-0.253751	-0.060221	-0.0990071	0.381088	-0.215314	0	0	0.0901531	-0.0818891	-0.155512	0.787211	-0.14618	0	0	-0.586339	0.00418843	0.197485	0.222937	-0.51705	1.14565	0.694432	0.365688	0	0	0.297079	-0.301129	0.769413	0.431003	0.832275	0	0
0.97	0.362913	1.33364	-1.77945	0.424008	0.673159	1.07976	-0.261837	-0.0626667	-0.101059	0.378351	-0.212679	0	0	0.0913036	-0.0737039	-0.146257	0.733844	-0.143168	0	0	-0.587415	0.00114727	0.196687	0.224697	-0.514916	1.14395	0.693304	0.364647	0	0	0.300433	-0.303292	0.76985	0.432919	0.83358	0	0
0.98	0.372798	1.33745	-1.79041	0.425822	0.664873	1.07871	-0.266815	-0.0638522	-0.100288	0.37788	-0.209075	0	0	0.0939873	-0.0674841	-0.137194	0.680566	-0.140986	0	0	-0.58714	-0.00122288	0.196441	0.226943	-0.513202	1.1425	0.69243	0.365504	0	0	0.303631	-0.305257	0.770036	0.43492	0.834931	0	0
0.99	0.380756	1.34166	-1.8002	0.427623	0.656532	1.07748	-0.271087	-0.0646287	-0.0972782	0.377938	-0.204702	0	0	0.0961691	-0.0623172	-0.12775	0.626395	-0.141026	0	0	-0.586389	-0.00339224	0.196885	0.22882	-0.512116	1.14042	0.692454	0.367014	0	0	0.306254	-0.307304	0.77007	0.437504	0.836391	0	0
